<svg width="400" height="400" viewBox="0 0 400 400" fill="none" xmlns="http://www.w3.org/2000/svg">
<rect width="400" height="400" rx="200" fill="url(#paint0_linear_1528_6479)"/>
<path d="M125.094 84.2234C111.306 88.6711 102.157 98.8374 99.361 112.816C98.0267 119.17 98.4079 125.715 100.378 131.624C101.14 133.721 104.063 139.63 106.986 144.713C113.213 155.578 114.039 157.929 112.958 162.25C112.26 164.855 110.925 166.507 102.03 175.72C96.5018 181.439 90.2749 188.301 88.3052 191.033C81.2523 200.5 75.9786 212.763 73.9453 224.328C72.6745 231.698 72.6745 245.867 74.0088 252.73C77.1223 269.059 84.747 283.546 96.2476 294.983C104.508 303.18 114.865 309.724 125.73 313.537C140.789 318.811 151.59 319.128 180.501 314.998L200.071 312.266L221.484 315.189C244.866 318.366 249.568 318.62 259.671 317.095C289.407 312.711 314.632 291.362 323.528 263.087C326.196 254.699 327.15 248.155 327.15 238.687C327.15 224.518 324.544 213.462 318.445 201.644C314.188 193.447 309.486 187.411 298.366 175.974C287.882 165.172 286.675 163.266 287.437 158.628C287.692 157.23 290.424 151.702 293.601 146.111C296.778 140.583 299.891 134.61 300.527 132.767C307.706 112.435 296.778 90.6408 276.191 84.2234C271.362 82.6984 262.085 82.6349 257.193 84.0327C248.488 86.5743 238.703 93.8813 233.365 101.951C232.031 103.921 230.887 105.636 230.887 105.7C230.887 105.763 228.473 105.064 225.487 104.238C210.174 99.7905 190.731 99.6634 175.481 103.984C172.94 104.683 170.716 105.255 170.525 105.255C170.398 105.255 169.127 103.603 167.729 101.57C162.329 93.6907 154.259 87.4639 145.872 84.6046C139.836 82.6349 130.622 82.4443 125.094 84.2234ZM164.997 179.024C172.749 182.773 173.766 194.273 166.903 199.484C158.58 205.774 147.333 200.056 147.333 189.572C147.333 180.676 156.737 175.021 164.997 179.024ZM246.327 179.024C254.079 182.773 255.096 194.273 248.234 199.484C239.91 205.774 228.664 200.056 228.664 189.572C228.664 180.676 238.067 175.021 246.327 179.024ZM195.305 211.429C199.817 212.891 199.817 212.891 207.505 210.73C209.919 210.031 210.491 210.095 213.224 211.429C216.972 213.272 219.133 216.385 219.133 219.753C219.133 225.217 215.892 228.712 208.903 230.809C205.345 231.889 205.154 232.016 205.154 233.922C205.154 235.066 205.789 236.908 206.615 238.116C211.508 245.359 223.898 244.533 225.232 236.845C226.249 230.809 227.456 229.157 230.824 229.157C233.365 229.157 235.018 231.253 235.018 234.43C235.018 239.132 233.238 243.072 229.299 247.138L225.614 250.887L225.36 262.705C225.105 273.316 224.915 274.905 223.644 277.764C221.865 281.767 219.069 284.69 215.003 286.85C211.889 288.502 211.571 288.566 200.071 288.566C188.57 288.566 188.253 288.502 185.139 286.85C181.073 284.69 178.277 281.767 176.498 277.764C175.227 274.905 175.036 273.316 174.782 262.642L174.528 250.633L171.669 248.028C167.539 244.215 165.696 240.657 165.315 235.892C164.997 232.397 165.124 231.698 166.331 230.491C167.729 229.093 170.207 228.775 172.114 229.792C173.321 230.427 174.274 232.778 174.909 236.845C175.545 240.657 179.103 243.135 183.995 243.135C189.523 243.135 194.988 238.56 194.988 233.922C194.988 232.016 194.797 231.889 191.239 230.809C184.25 228.712 181.009 225.217 181.009 219.753C181.009 216.449 183.169 213.335 186.728 211.493C190.159 209.777 189.968 209.777 195.305 211.429ZM119.376 219.626C121.091 221.341 121.028 224.772 119.312 226.361C118.105 227.441 116.834 227.568 104.126 227.568C91.4186 227.568 90.1478 227.441 88.9406 226.361C87.225 224.772 87.1615 221.341 88.877 219.626C90.0843 218.418 90.9738 218.355 104.126 218.355C117.279 218.355 118.169 218.418 119.376 219.626ZM312.535 219.626C314.251 221.341 314.188 224.772 312.472 226.361C311.265 227.505 309.994 227.568 296.651 227.568C283.307 227.568 282.037 227.505 280.829 226.361C279.114 224.772 279.05 221.341 280.766 219.626C281.973 218.418 282.863 218.355 296.651 218.355C310.439 218.355 311.328 218.418 312.535 219.626ZM119.376 250.125C121.091 251.84 121.028 255.271 119.312 256.86C118.105 257.94 116.834 258.067 104.126 258.067C91.4186 258.067 90.1478 257.94 88.9406 256.86C87.225 255.271 87.1615 251.84 88.877 250.125C90.0843 248.917 90.9738 248.854 104.126 248.854C117.279 248.854 118.169 248.917 119.376 250.125ZM312.535 250.125C314.251 251.84 314.188 255.271 312.472 256.86C311.265 258.003 309.994 258.067 296.651 258.067C283.307 258.067 282.037 258.003 280.829 256.86C279.114 255.271 279.05 251.84 280.766 250.125C281.973 248.917 282.863 248.854 296.651 248.854C310.439 248.854 311.328 248.917 312.535 250.125Z" fill="#1E1D1D"/>
<path d="M198.546 247.519C196.894 249.362 191.684 251.904 188.125 252.73L184.821 253.428V263.722C184.821 273.38 184.885 274.206 186.219 275.858C188.443 278.717 190.921 279.353 200.071 279.353C209.22 279.353 211.698 278.717 213.922 275.858C215.257 274.206 215.32 273.38 215.32 263.722V253.428L212.143 252.73C208.394 251.904 204.836 250.188 202.104 247.901C199.817 245.994 199.88 245.994 198.546 247.519Z" fill="#1E1D1D"/>
<defs>
<linearGradient id="paint0_linear_1528_6479" x1="200" y1="0" x2="200" y2="400" gradientUnits="userSpaceOnUse">
<stop stop-color="#CAF045"/>
<stop offset="1" stop-color="#A6BB5D"/>
</linearGradient>
</defs>
</svg>
