<svg width="400" height="400" viewBox="0 0 400 400" fill="none" xmlns="http://www.w3.org/2000/svg">
<rect width="400" height="400" rx="200" fill="url(#paint0_linear_1526_6256)"/>
<path d="M209.069 85.8365C198.332 87.4883 187.816 91.0672 179.777 95.8575C171.298 100.868 162.268 111.109 158.579 119.919C157.477 122.452 157.037 122.892 152.467 125.425C142.997 130.656 133.086 138.97 126.368 147.174L123.285 150.973L119.596 149.541C114.696 147.669 107.042 147.229 101.646 148.495C91.2949 150.918 82.4302 159.122 79.2367 169.143C77.6951 173.933 77.5849 182.412 78.9614 187.092C82.0448 197.499 90.5792 205.978 100.545 208.511L103.243 209.172L103.573 215.228C105.776 251.953 129.176 285.43 162.268 299.085C164.745 300.076 167.939 302.113 170.857 304.481C179.502 311.474 187.485 314.502 198.277 314.942C211.547 315.493 221.347 312.134 231.313 303.49C233.02 302.003 235.718 300.351 237.26 299.746C250.034 294.68 263.138 285.375 272.719 274.638C287.144 258.34 296.119 236.922 297.165 216.495L297.496 209.997L299.643 209.667C305.81 208.621 314.069 202.619 318.253 196.067C324.145 186.982 324.475 174.649 319.189 164.518C315.445 157.415 306.966 151.083 298.927 149.376C294.357 148.385 285.162 148.936 281.363 150.422L278.335 151.578L276.187 148.991C272.003 143.87 261.706 134.179 256.751 130.656C253.943 128.673 248.767 125.535 245.243 123.718C237.7 119.699 237.26 120.635 249.538 114.688C258.183 110.559 259.889 109.127 259.889 106.154C259.889 103.566 257.962 101.529 253.558 99.4915C244.583 95.3619 233.185 95.6372 219.42 100.372L216.117 101.474L219.42 98.6105C225.532 93.2146 225.752 92.9393 225.752 90.4616C225.752 88.6446 225.422 87.8187 224.155 86.5523C222.614 85.0657 222.283 84.9555 218.209 85.0106C215.841 85.0657 211.712 85.396 209.069 85.8365ZM175.868 180.76C183.191 182.632 186.825 184.78 192.881 190.781C197.892 195.792 198.442 196.177 200.479 196.177C202.517 196.177 203.012 195.792 207.802 191.002C211.987 186.817 213.804 185.385 217.548 183.568C231.478 176.686 246.73 179.164 257.742 190.121C270.241 202.564 271.507 221.23 260.826 235.656C255.43 242.923 248.382 246.998 237.15 249.31C236.269 249.476 234.947 250.246 234.231 250.962C232.58 252.614 232.525 255.147 234.066 260.047C235.498 264.617 235.608 272.656 234.286 277.667C230.102 293.799 215.015 304.866 198.497 303.93C189.357 303.38 182.86 300.351 175.868 293.414C171.022 288.568 168.159 283.613 166.562 277.391C165.461 273.152 165.516 265.498 166.617 261.699C167.058 260.047 167.608 257.239 167.774 255.532C168.049 252.724 167.939 252.284 166.672 251.017C165.902 250.246 164.58 249.476 163.699 249.31C158.524 248.264 153.403 246.502 150.099 244.52C139.583 238.353 133.141 226.956 133.086 214.622C132.976 192.213 154.394 175.254 175.868 180.76Z" fill="#1E1D1D"/>
<path d="M162.984 201.188C160.781 202.069 157.973 205.042 156.597 208.016C153.844 213.797 155.22 222.607 159.46 226.571C165.847 232.518 175.538 229.489 178.125 220.735C181.154 210.604 175.593 200.528 167.003 200.638C165.572 200.638 163.755 200.913 162.984 201.188Z" fill="#1E1D1D"/>
<path d="M229.221 201.627C224.651 203.775 221.512 210.437 222.063 216.659C223.109 228.001 233.626 233.507 241.169 226.68C244.473 223.707 245.794 220.403 245.794 215.117C245.849 211.263 245.629 210.272 244.197 207.464C241.94 203.059 239.022 201.022 234.727 200.746C232.414 200.581 230.928 200.857 229.221 201.627Z" fill="#1E1D1D"/>
<path d="M181.869 266.875C179.667 267.866 178.951 269.243 178.951 272.546C179.006 276.18 180.493 279.154 183.852 282.182C188.642 286.477 196.405 288.514 204.169 287.578C213.914 286.311 220.522 281.411 222.008 274.143C222.559 271.555 222.504 271.005 221.568 269.353C220.907 268.252 219.696 267.206 218.484 266.765C216.667 266.049 216.227 266.104 214.355 266.985C212.813 267.756 212.042 268.582 211.437 270.344C210.996 271.555 210.17 273.097 209.565 273.703C207.197 276.346 199.709 277.392 194.809 275.685C191.835 274.694 190.459 273.317 189.688 270.674C188.752 267.261 185.063 265.499 181.869 266.875Z" fill="#1E1D1D"/>
<defs>
<linearGradient id="paint0_linear_1526_6256" x1="200" y1="0" x2="200" y2="400" gradientUnits="userSpaceOnUse">
<stop stop-color="#CAF045"/>
<stop offset="1" stop-color="#A6BB5D"/>
</linearGradient>
</defs>
</svg>
