<svg width="400" height="400" viewBox="0 0 400 400" fill="none" xmlns="http://www.w3.org/2000/svg">
<rect width="400" height="400" rx="200" fill="url(#paint0_linear_1526_6294)"/>
<path d="M178.661 76.2952C177.316 78.0389 177.266 81.9246 178.611 84.9137C179.259 86.2587 179.359 86.9562 178.96 86.8067C167.652 81.6755 163.567 81.5759 162.123 86.458C161.625 88.102 161.674 88.7994 162.422 90.7921C163.518 93.6317 166.805 97.2684 171.04 100.307C173.281 101.852 174.028 102.649 173.53 102.948C173.182 103.147 170.093 104.143 166.656 105.14C135.572 114.356 114.899 128.902 97.8122 153.462C87.1518 168.806 79.9785 186.292 76.641 205.023C74.9473 214.638 74.4491 233.868 75.6945 243.134C79.4804 271.878 95.172 296.638 118.834 311.284C130.291 318.308 145.784 323.141 161.674 324.585C165.909 324.984 179.11 325.083 202.771 324.934C239.734 324.735 240.531 324.685 252.337 322.144C291.192 313.725 318.74 283.436 324.369 242.885C324.967 238.451 325.116 234.565 324.917 225.698C324.668 212.944 323.97 207.564 321.28 196.555C318.889 186.99 316.349 180.015 311.616 170.4C301.504 149.826 287.805 133.934 269.623 121.828C259.112 114.804 249.498 110.42 230.917 104.143C209.746 96.9695 201.177 92.1372 190.168 81.1275C184.191 75.1494 183.991 75 181.849 75C180.106 75 179.458 75.2491 178.661 76.2952ZM153.754 194.313C158.835 196.056 161.674 199.992 161.674 205.273C161.674 208.909 160.479 211.699 158.038 213.841C155.697 215.884 153.256 216.631 149.669 216.382C145.734 216.083 142.994 214.24 141.151 210.553C137.813 204.027 140.703 196.754 147.527 194.313C150.068 193.416 151.064 193.416 153.754 194.313ZM254.878 195.807C257.368 197.551 259.311 200.988 259.66 204.276C260.905 215.087 247.654 220.965 240.481 212.795C236.745 208.511 237.094 200.739 241.178 197.003C243.868 194.562 245.313 194.064 249.199 194.213C252.237 194.313 253.084 194.562 254.878 195.807ZM202.971 215.485C205.81 216.282 208.251 218.325 213.98 224.751C221.601 233.27 227.479 237.704 238.19 243.034C247.754 247.817 247.804 251.653 238.439 260.42C215.773 281.693 184.091 281.991 161.376 261.168C153.903 254.293 152.359 250.208 155.796 246.521C156.394 245.874 159.732 243.881 163.169 242.088C166.606 240.344 171.338 237.455 173.63 235.711C177.515 232.772 179.807 230.58 188.973 220.816C193.904 215.585 197.989 214.04 202.971 215.485ZM126.705 221.264C137.016 226.395 136.12 241.789 125.31 245.625C120.727 247.219 116.094 246.073 112.408 242.387C102.246 232.224 113.952 214.887 126.705 221.264ZM283.77 221.314C291.641 225.349 293.384 236.06 287.157 242.287C280.731 248.763 270.619 246.97 266.534 238.65C265.04 235.562 265.189 230.43 266.883 227.142C270.27 220.666 277.493 218.175 283.77 221.314Z" fill="#1E1D1D"/>
<path d="M166.158 250.358C163.418 253.098 166.108 256.435 173.381 259.275C190.567 266.049 208.151 265.95 226.135 259.026C232.212 256.684 234.703 254.642 234.205 252.301C233.507 248.764 232.312 248.614 224.192 251.105C213.731 254.243 209.148 254.991 200.032 255.04C190.667 255.04 186.881 254.443 176.469 251.354C169.047 249.112 167.553 248.963 166.158 250.358Z" fill="#1E1D1D"/>
<defs>
<linearGradient id="paint0_linear_1526_6294" x1="200" y1="0" x2="200" y2="400" gradientUnits="userSpaceOnUse">
<stop stop-color="#CAF045"/>
<stop offset="1" stop-color="#A6BB5D"/>
</linearGradient>
</defs>
</svg>
