<svg width="400" height="400" viewBox="0 0 400 400" fill="none" xmlns="http://www.w3.org/2000/svg">
<rect width="400" height="400" rx="200" fill="url(#paint0_linear_1528_6322)"/>
<path d="M111.357 85.8072C109.757 86.2337 106.132 87.6732 103.36 89.0593C99.0947 91.1385 97.602 92.2581 93.4968 96.3632C87.8456 102.068 85.7664 105.426 83.2074 112.837C81.608 117.529 81.2881 119.128 81.0749 124.673C80.755 132.51 81.3947 135.815 84.2737 141.52C86.6727 146.371 90.8312 151.169 95.5761 154.528C98.8815 156.82 102.88 159.06 103.84 159.06C104.106 159.06 105.119 157.673 106.025 155.967C111.463 146.371 117.968 137.948 127.031 128.884C134.228 121.74 141.852 115.663 149.636 110.971C152.728 109.105 154.007 108.039 153.794 107.506C152.834 105.053 148.943 100.095 144.678 95.8834C139.4 90.6054 133.908 87.3 128.097 85.7539C124.205 84.7409 115.302 84.7409 111.357 85.8072Z" fill="#1E1D1D"/>
<path d="M272.416 85.8066C264.686 87.8858 255.569 94.7632 250.078 102.707C248.532 104.893 247.199 107.079 247.039 107.452C246.826 107.985 248.212 109.104 251.304 111.024C259.088 115.769 266.445 121.686 274.015 129.204C282.812 138 288.73 145.731 296.247 158.526C296.673 159.219 297.1 159.166 299.339 158.046C306.536 154.634 313.201 148.183 316.506 141.519C319.385 135.814 320.025 132.509 319.705 124.672C319.492 119.127 319.172 117.528 317.572 112.836C315.013 105.426 312.934 102.067 307.283 96.3626C303.178 92.2575 301.685 91.1379 297.42 89.0587C294.648 87.6725 290.916 86.1798 289.156 85.7533C285.158 84.7403 276.255 84.7403 272.416 85.8066Z" fill="#1E1D1D"/>
<path d="M189.994 104.2C158.539 108.518 126.604 133.095 109.491 166.203C100.374 183.796 96.0027 200.59 95.5228 220.422C95.203 231.725 95.8427 240.202 97.5487 248.625C100.801 264.566 108.371 278.587 118.181 286.744C125.805 293.088 145.904 304.284 157.473 308.602C163.657 310.895 172.614 313.241 179.065 314.307C182.21 314.787 189.088 315 201.19 315C218.41 315 218.943 314.947 225.714 313.507C245.386 309.242 269.217 298.046 282.865 286.531C292.462 278.48 300.032 264.352 303.231 248.625C306.75 231.565 306.003 209.653 301.418 192.113C294.808 166.896 278.814 142.212 258.501 125.951C245.919 115.822 230.299 108.198 216.117 105.106C210.519 103.88 195.858 103.4 189.994 104.2ZM171.281 161.405C179.171 165.03 186.209 174.733 189.141 185.982C190.687 191.74 191.38 200.75 190.794 207.361C190.047 216.157 187.168 222.502 181.517 228.099C171.601 237.856 155.18 240.308 138.387 234.497C130.283 231.725 123.566 226.02 119.994 218.823C114.609 208.107 115.995 198.191 124.419 186.515C133.908 173.347 143.718 164.603 152.888 161.138C158.859 158.899 166.163 159.006 171.281 161.405ZM246.026 160.712C252.744 162.791 257.968 166.043 264.526 172.334C272.096 179.584 279.987 190.834 282.492 198.191C285.798 207.734 283.718 217.437 276.681 224.794C269.164 232.738 257.488 237.536 245.44 237.536C224.328 237.536 212.279 227.14 210.04 206.987C209.347 200.856 209.986 192.113 211.639 185.982C214.411 175.213 221.235 165.563 228.646 161.725C233.071 159.379 240.428 159.006 246.026 160.712ZM217.93 241.161C222.302 243.347 224.488 247.932 223.368 252.357C221.715 258.808 213.398 266.272 206.414 267.605L204.655 267.924V272.403V276.881L206.947 276.561C212.332 275.708 217.557 274.055 222.515 271.55C228.646 268.511 230.245 268.298 231.791 270.27C233.178 272.03 233.178 273.149 231.845 274.908C230.245 276.934 220.649 281.466 214.518 283.119C209.773 284.398 208.227 284.558 200.39 284.558C192.553 284.558 191.007 284.398 186.262 283.119C180.131 281.466 170.535 276.934 168.935 274.908C168.349 274.162 167.869 273.096 167.869 272.563C167.869 271.23 170.055 268.831 171.388 268.777C171.974 268.724 174.96 269.95 178.052 271.443C183.223 274.055 188.394 275.708 193.886 276.561L196.125 276.881V272.403V267.924L194.472 267.605C191.647 267.071 186.315 264.139 183.436 261.633C176.772 255.822 175.279 248.518 179.758 243.454C182.637 240.202 183.01 240.148 200.283 240.095C214.731 240.095 216.064 240.148 217.93 241.161Z" fill="#1E1D1D"/>
<path d="M155.66 168.656C151.075 170.308 146.117 173.88 140.412 179.585C129.003 191.047 124.099 200.27 124.898 208.641C125.698 217.437 132.096 224.101 143.078 227.673C148.729 229.486 159.339 229.966 164.83 228.686C173.2 226.714 178.638 221.916 181.517 213.812C183.543 208.214 183.383 194.886 181.197 186.889C178.958 178.785 173.946 171.535 168.828 168.976C165.31 167.216 159.978 167.11 155.66 168.656ZM164.617 191.101C167.016 192.54 168.242 194.086 168.828 196.538C170.268 201.976 166.163 207.041 160.298 207.041C156.3 207.041 152.888 204.002 152.088 199.684C151.715 197.711 152.994 193.819 154.434 192.487C157.366 189.821 161.578 189.235 164.617 191.101Z" fill="#1E1D1D"/>
<path d="M157.313 194.779C155.18 196.805 155.127 200.163 157.206 202.243C158.806 203.842 162.538 203.682 164.19 201.923C166.056 199.95 165.95 196.698 163.977 194.992C162.058 193.339 158.966 193.286 157.313 194.779Z" fill="#1E1D1D"/>
<path d="M231.95 168.922C226.832 171.535 221.874 178.732 219.635 186.782C217.236 195.366 217.182 208.481 219.528 214.345C222.727 222.449 227.632 226.714 235.949 228.686C241.44 229.966 252.049 229.486 257.701 227.673C265.857 225.008 271.242 220.849 274.121 215.038C275.614 211.999 275.827 211.093 275.827 207.041C275.827 201.283 274.761 198.191 270.762 192.167C264.045 182.197 255.195 173.507 247.944 169.882C244.532 168.176 243.413 167.909 239.414 167.696C235.202 167.536 234.509 167.643 231.95 168.922ZM245.332 191.74C247.624 193.446 249.17 197.178 248.691 199.684C247.571 205.602 241.653 208.694 236.322 206.188C231.737 204.002 230.191 197.232 233.39 193.34C236.429 189.661 241.707 188.968 245.332 191.74Z" fill="#1E1D1D"/>
<path d="M236.856 194.938C234.937 196.591 234.83 200.057 236.643 201.976C238.562 204.002 241.974 203.842 243.787 201.656C244.587 200.75 245.173 199.363 245.173 198.51C245.173 197.657 244.587 196.271 243.787 195.365C242.028 193.232 239.042 193.072 236.856 194.938Z" fill="#1E1D1D"/>
<path d="M185.142 249.479C184.396 252.464 190.207 257.955 196.018 259.608C202.149 261.421 209.72 258.968 213.718 253.85C215.851 251.185 216.117 250.491 215.531 248.945C215.264 248.199 213.398 248.092 200.336 248.092H185.462L185.142 249.479Z" fill="#1E1D1D"/>
<defs>
<linearGradient id="paint0_linear_1528_6322" x1="200" y1="0" x2="200" y2="400" gradientUnits="userSpaceOnUse">
<stop stop-color="#CAF045"/>
<stop offset="1" stop-color="#A6BB5D"/>
</linearGradient>
</defs>
</svg>
