<svg width="400" height="400" viewBox="0 0 400 400" fill="none" xmlns="http://www.w3.org/2000/svg">
<rect width="400" height="400" rx="200" fill="url(#paint0_linear_1521_6003)"/>
<path fill-rule="evenodd" clip-rule="evenodd" d="M194.359 88.2166C194.046 88.2948 191.584 88.5292 188.888 88.7246C179.238 89.5152 169.149 91.0666 160.137 93.1003C156.973 93.8142 154.425 96.1157 153.271 99.1473L102.947 231.422C102.179 233.44 102.079 235.655 102.699 237.723C106.08 249.006 109.702 258.183 114.455 267.756C132.78 304.288 160.404 319.136 194.437 310.696L196.427 310.199C198.09 309.783 199.834 309.834 201.47 310.345C207.018 312.025 213.348 312.845 220.928 312.845C225.226 312.845 229.329 312.65 231.087 312.337C251.17 308.782 267.385 295.81 280.201 273.148C285.554 263.692 289.188 255.135 293.994 240.756C294.06 240.526 294.194 240.082 294.363 239.526L294.368 239.512L294.371 239.502L294.372 239.497L294.372 239.496C294.604 238.733 294.898 237.765 295.166 236.849C295.451 235.786 295.822 234.5 296.12 233.47L296.12 233.469C296.271 232.946 296.402 232.489 296.494 232.16C296.521 232.075 296.518 231.983 296.486 231.9L246.158 99.6201C245.009 96.5987 242.47 94.3179 239.328 93.5589C238.274 93.3044 237.099 93.0237 235.776 92.71C224.054 89.9358 198.657 87.2008 194.359 88.2166ZM204.908 281.861L207.917 280.22C216.2 275.766 221.436 271.038 224.054 265.646C227.883 257.675 224.796 253.299 213.621 250.916C210.691 250.291 207.8 250.017 201.392 249.861C187.482 249.509 178.73 251.072 174.471 254.667C172.673 256.152 172.087 257.597 172.087 260.332C172.087 264.122 174.041 267.795 178.3 272.015C181.894 275.61 184.239 277.29 189.514 280.103L192.796 281.861C194.945 282.909 200.376 284.374 204.908 281.861ZM177.948 202.855C177.948 214.724 168.327 224.345 156.458 224.345C144.59 224.345 134.968 214.724 134.968 202.855C134.968 190.987 144.59 181.365 156.458 181.365C168.327 181.365 177.948 190.987 177.948 202.855ZM242.028 224.345C253.896 224.345 263.518 214.724 263.518 202.855C263.518 190.987 253.896 181.365 242.028 181.365C230.159 181.365 220.538 190.987 220.538 202.855C220.538 214.724 230.159 224.345 242.028 224.345Z" fill="#1E1D1D"/>
<path d="M254.138 98.6182C253.003 95.6353 253.246 91.9794 256.115 90.5815C262.25 87.5925 273.107 89.4138 286.804 95.9921C311.381 107.753 330.996 122.991 340.334 137.487C341.897 139.91 344.632 145.497 345.257 147.529C346.156 150.538 346.703 152.882 347.133 155.773C347.641 159.016 347.602 159.485 346.078 170.035C345.894 171.37 345.669 172.949 345.475 174.309C345.34 175.257 345.22 176.099 345.14 176.677C344.437 181.835 343.147 189.141 341.584 196.8C341.155 198.949 340.647 201.41 340.451 202.27C339.709 206.021 337.325 214.773 335.841 219.11C331.386 232.434 326.62 238.646 319.938 239.858C313.335 241.069 306.849 235.56 302.199 224.815C302.085 224.551 301.969 224.29 301.854 224.033L254.138 98.6182Z" fill="#1E1D1D"/>
<path d="M97.3645 224.118L145.139 98.5467C146.283 95.5397 146.026 91.8407 143.113 90.4743C138.51 88.3148 131.22 88.8732 121.488 92.163C116.252 93.9212 102.85 100.642 95.0749 105.33C72.6863 118.889 57.7215 134.596 53.5798 148.975C51.8215 154.992 51.6262 158.157 52.5248 165.19C53.4626 172.457 53.8924 175.622 54.4394 178.826C54.6738 180.116 55.0255 182.382 55.2599 183.906C55.4297 185.196 55.7472 186.96 55.9557 188.117C55.987 188.291 56.0158 188.451 56.0414 188.594C56.1759 189.2 56.3748 190.217 56.5864 191.299C56.7434 192.102 56.9074 192.941 57.0572 193.674C57.5652 196.331 58.6592 201.449 59.9486 207.154C62.1367 216.727 66.1612 227.511 69.4824 232.473C73.2724 238.217 77.4141 240.483 82.8452 239.779C87.2604 239.232 92.1054 234.661 95.622 227.706C96.3391 226.327 96.9979 224.948 97.3645 224.118Z" fill="#1E1D1D"/>
<defs>
<linearGradient id="paint0_linear_1521_6003" x1="200" y1="0" x2="200" y2="400" gradientUnits="userSpaceOnUse">
<stop stop-color="#CAF045"/>
<stop offset="1" stop-color="#A6BB5D"/>
</linearGradient>
</defs>
</svg>
