<svg width="400" height="400" viewBox="0 0 400 400" fill="none" xmlns="http://www.w3.org/2000/svg">
<rect width="400" height="400" rx="200" fill="url(#paint0_linear_1517_5825)"/>
<path fill-rule="evenodd" clip-rule="evenodd" d="M122.265 86.606L154.987 119.328C169.429 114.682 207.524 108.178 244.366 119.328L277.391 86C292.035 94.6854 317.627 123.267 302.841 168.108C311.325 184.368 327.564 225.492 324.656 259.911C293.146 303.54 166.5 355.653 75 259.911C75 241.631 79.5447 197.679 97.7235 168.108C91.159 151.141 86.8768 111.087 122.265 86.606ZM154.987 223.854C168.039 223.854 178.62 213.274 178.62 200.222C178.62 187.17 168.039 176.59 154.987 176.59C141.935 176.59 131.355 187.17 131.355 200.222C131.355 213.274 141.935 223.854 154.987 223.854ZM268.302 200.222C268.302 213.274 257.721 223.854 244.669 223.854C231.617 223.854 221.037 213.274 221.037 200.222C221.037 187.17 231.617 176.59 244.669 176.59C257.721 176.59 268.302 187.17 268.302 200.222ZM178.312 245.064L199.828 266.878L221.344 245.064H178.312Z" fill="#1E1D1D"/>
<defs>
<linearGradient id="paint0_linear_1517_5825" x1="200" y1="0" x2="200" y2="400" gradientUnits="userSpaceOnUse">
<stop stop-color="#CAF045"/>
<stop offset="1" stop-color="#A6BB5D"/>
</linearGradient>
</defs>
</svg>
