<svg width="400" height="400" viewBox="0 0 400 400" fill="none" xmlns="http://www.w3.org/2000/svg">
<rect width="400" height="400" rx="200" fill="url(#paint0_linear_1532_6538)"/>
<path d="M117.049 78.6821C109.191 80.407 100.23 85.3901 94.7203 91.1878C87.4851 98.7584 83.4603 107.191 82.2624 117.493C81.2083 126.549 83.3645 136.899 88.108 145.332C89.6413 148.015 91.6537 150.506 95.3432 154.196L100.422 159.323L99.0805 162.868C94.4328 174.799 91.2225 196.121 91.2225 215.192C91.2225 231.866 92.9954 242.791 97.5952 254.194C104.255 270.821 116.282 282.033 131.519 285.866C133.627 286.393 135.4 287.112 135.64 287.543C135.879 287.974 137.125 289.747 138.467 291.52C150.493 307.428 166.593 318.017 184.656 321.898C189.16 322.856 191.221 323 199.702 323C208.183 323 210.243 322.856 214.747 321.898C232.811 318.017 248.958 307.38 260.937 291.52C262.279 289.747 263.524 287.974 263.764 287.543C264.004 287.112 265.776 286.393 267.885 285.866C276.366 283.758 282.547 280.164 289.303 273.408C293.28 269.431 294.957 267.323 297.256 263.346C305.019 250.074 308.133 236.322 308.181 215.192C308.181 196.265 304.923 174.703 300.323 162.773L298.886 159.131L302.479 155.873C311.104 148.015 315.847 138.719 317.141 127.22C319.345 107.431 308.325 88.9358 289.782 81.1257C283.553 78.4904 278.953 77.7717 270.903 78.0592C263.045 78.3466 259.26 79.257 252.648 82.4673C244.215 86.5401 236.74 94.0148 232.667 102.352C231.565 104.604 230.607 106.521 230.559 106.616C230.463 106.712 228.355 106.329 225.767 105.754C218.293 104.077 206.937 102.831 199.702 102.831C192.467 102.831 181.111 104.077 173.636 105.754C171.049 106.329 168.94 106.712 168.845 106.616C168.797 106.521 167.838 104.604 166.736 102.352C161.418 91.4753 150.924 82.8027 138.85 79.3049C134.01 77.9154 122.032 77.58 117.049 78.6821ZM175.074 162.294C178.955 163.731 180.919 165.073 183.65 168.091C190.742 175.806 192.035 187.688 187.1 199.619C178.859 219.6 158.255 230.764 143.21 223.433C131.231 217.587 127.159 201.823 133.675 186.538C138.946 174.128 150.206 164.066 161.609 161.575C165.922 160.616 171.336 160.904 175.074 162.294ZM237.459 161.575C251.21 164.306 264.051 177.626 267.933 193.103C268.987 197.271 269.035 204.65 267.98 208.436C262.949 227.17 241.771 231.435 224.953 217.108C208.662 203.213 204.397 180.501 215.753 168.091C218.58 164.977 220.497 163.683 224.378 162.341C229.217 160.616 232.044 160.473 237.459 161.575ZM214.076 232.968C217.047 234.357 219.73 237.137 221.168 240.251C222.174 242.503 222.318 243.365 222.126 246.384C221.886 249.834 221.791 250.074 216.664 259.082C213.789 264.113 210.531 269.192 209.428 270.389C207.704 272.258 207.512 272.689 207.991 273.456C208.662 274.558 212.016 276.283 213.501 276.283C216.328 276.283 219.634 273.744 220.113 271.156L220.401 269.575H227.301H234.2V270.964C234.2 275.085 230.559 282.081 226.822 285.147C222.653 288.549 215.993 290.562 211.249 289.891C208.231 289.46 204.589 288.07 201.906 286.297L199.702 284.812L197.498 286.297C192.946 289.316 187.819 290.514 182.979 289.747C177.086 288.789 171.911 285.531 168.749 280.739C166.88 277.912 165.203 273.312 165.203 270.964V269.575H172.103H179.003L179.29 271.156C179.769 273.744 183.075 276.283 185.902 276.283C187.388 276.283 190.742 274.558 191.412 273.456C191.892 272.689 191.7 272.258 189.975 270.389C188.873 269.192 185.615 264.113 182.74 259.082C177.757 250.313 177.517 249.786 177.278 246.576C176.846 240.155 180.248 234.885 186.381 232.633C188.681 231.818 190.071 231.722 200.42 231.866C210.962 231.962 212.112 232.058 214.076 232.968Z" fill="#1E1D1D"/>
<path d="M164.724 175.04C158.351 176.381 151.404 182.083 147.762 189.079C145.51 193.343 144.552 197.032 144.504 201.297C144.504 209.394 149.247 213.323 156.818 211.359C167.743 208.484 177.421 194.397 176.032 183.329C175.649 180.071 174.067 177.196 172.055 176.046C170.522 175.135 166.784 174.608 164.724 175.04ZM165.874 182.562C169.084 183.904 170.57 187.641 169.228 190.947C167.216 196.026 160.747 196.649 157.68 192.001C155.62 188.983 156.674 184.91 160.028 182.85C161.897 181.748 163.67 181.652 165.874 182.562Z" fill="#1E1D1D"/>
<path d="M228.787 175.375C226.439 176.237 225.72 176.908 224.57 179.112C222.366 183.472 222.941 190.037 226.151 196.745C227.733 200.051 228.882 201.584 231.997 204.651C236.213 208.819 239.52 210.784 243.688 211.598C250.636 212.892 254.9 208.963 254.9 201.345C254.9 188.935 244.263 176.046 233.099 174.944C231.566 174.8 229.937 174.944 228.787 175.375ZM239.376 182.85C242.73 184.91 243.784 188.983 241.724 192.001C238.657 196.649 232.189 196.026 230.176 190.947C227.876 185.197 234.153 179.687 239.376 182.85Z" fill="#1E1D1D"/>
<path d="M191.173 246C191.748 247.39 199.462 260.471 199.702 260.471C199.941 260.471 207.655 247.39 208.23 246C208.326 245.761 204.493 245.617 199.702 245.617C194.91 245.617 191.077 245.761 191.173 246Z" fill="#1E1D1D"/>
<defs>
<linearGradient id="paint0_linear_1532_6538" x1="200" y1="0" x2="200" y2="400" gradientUnits="userSpaceOnUse">
<stop stop-color="#CAF045"/>
<stop offset="1" stop-color="#A6BB5D"/>
</linearGradient>
</defs>
</svg>
