<svg width="400" height="400" viewBox="0 0 400 400" fill="none" xmlns="http://www.w3.org/2000/svg">
<rect width="400" height="400" rx="200" fill="url(#paint0_linear_1532_6582)"/>
<path d="M103.626 81.9132C74.7632 89.3019 58.8889 103.387 55.4831 124.572C54.5595 130.171 55.0213 142.293 56.349 147.489C57.7921 153.03 61.8906 161.112 65.4118 165.268C75.4559 177.044 92.8888 184.837 118.519 189.051C122.444 189.686 126.023 190.205 126.485 190.205C128.447 190.205 128.794 186.915 128.794 166.769C128.794 147.604 129.025 144.487 130.814 139.811C131.218 138.888 130.641 138.83 123.425 138.83C107.493 138.83 98.6036 135.482 94.9669 128.093C93.5238 125.149 93.4661 124.572 93.697 119.03C93.9856 112.565 95.1978 108.755 98.8345 102.636C101.259 98.6534 107.493 91.8996 112.4 87.9743C115.575 85.4921 116.094 84.7994 116.094 83.1831C116.094 79.3155 114.42 79.1424 103.626 81.9132Z" fill="#1E1D1D"/>
<path d="M284.189 80.6432C283.785 81.0473 283.497 82.1441 283.497 83.1831C283.497 84.7994 284.016 85.4921 287.191 87.9743C292.098 91.8996 298.332 98.6534 300.756 102.636C304.393 108.755 305.605 112.565 305.894 119.03C306.125 124.572 306.067 125.149 304.624 128.093C300.987 135.54 292.213 138.83 276.166 138.83C268.95 138.83 268.373 138.888 268.777 139.811C270.566 144.487 270.797 147.604 270.797 166.422C270.797 186.338 271.144 190.205 273.048 190.205C274.78 190.205 287.941 187.954 293.079 186.742C301.449 184.837 308.78 182.239 316.111 178.66C327.772 172.945 335.103 166.076 339.778 156.436C343.126 149.509 344.108 145.18 344.512 136.175C345.205 119.954 341.048 108.928 330.427 98.9997C322.172 91.3223 310.858 85.723 295.85 81.9132C287.422 79.7773 285.286 79.5464 284.189 80.6432Z" fill="#1E1D1D"/>
<path d="M163.891 125.611C159.215 126.304 154.02 127.689 148.824 129.709C143.283 131.845 138.78 135.944 136.414 140.966L134.855 144.314L134.566 166.249L134.278 188.185L132.719 191.995C130.872 196.613 129.371 204.117 129.371 208.908C129.429 219.876 134.624 230.266 145.13 240.253C149.979 244.813 151.422 247.18 152.461 252.086L153.096 255.434L155.925 251.22C158.695 247.122 164.699 240.541 167.296 238.867C168.509 238.059 168.797 238.059 170.067 238.925C170.875 239.444 171.51 240.368 171.51 241.003C171.51 241.638 169.317 244.293 166.373 247.237C162.043 251.567 160.773 253.298 158.464 258.032C155.694 263.573 155.636 263.804 155.636 269C155.636 274.945 156.155 276.042 159.908 277.889C161.524 278.64 162.159 279.563 163.487 282.796C165.334 287.356 168.162 290.589 172.03 292.494C174.685 293.821 174.801 293.821 199.795 293.821C224.79 293.821 224.906 293.821 227.561 292.494C231.429 290.589 234.257 287.356 236.104 282.796C237.432 279.563 238.067 278.64 239.683 277.889C243.436 276.042 243.955 274.945 243.955 269C243.955 263.804 243.897 263.573 241.184 258.09C238.818 253.356 237.49 251.567 233.218 247.237C230.39 244.351 228.081 241.58 228.081 240.945C228.081 240.368 228.716 239.444 229.524 238.925C230.794 238.059 231.082 238.059 232.295 238.867C234.892 240.541 240.896 247.122 243.666 251.22L246.495 255.434L247.13 252.086C248.169 247.18 249.497 245.044 254.634 240.079C265.429 229.631 270.22 219.991 270.22 208.677C270.22 203.944 268.488 195.631 266.525 190.84L265.025 187.146V166.826C265.025 144.487 264.851 143.102 261.503 138.022C257.982 132.711 252.325 129.421 241.761 126.592C235.469 124.918 225.887 124.687 215.381 125.842C204.471 127.054 193.446 127.054 185.364 125.9C178.899 124.918 169.259 124.803 163.891 125.611ZM159.042 181.546C165.449 184.779 170.644 189.686 176.071 197.536C177.571 199.787 177.398 200.191 173.935 202.385C169.317 205.329 163.602 204.521 159.388 200.422C157.021 198.171 154.308 192.514 153.846 188.935C153.385 185.472 154.077 179.815 154.943 179.815C155.347 179.815 157.194 180.623 159.042 181.546ZM245.744 183.047C246.264 187.434 245.687 190.956 243.724 195.112C240.896 201.115 236.913 204.059 231.429 204.059C228.947 204.059 227.734 203.713 225.656 202.385C224.213 201.461 222.828 200.422 222.655 200.076C221.846 198.864 229.582 189.108 234.026 185.645C237.143 183.278 243.378 179.815 244.648 179.815C245.052 179.815 245.456 181.142 245.744 183.047ZM186.519 268.307C185.307 273.329 183.633 276.792 181.843 277.658C179.245 279.044 177.398 278.755 175.205 276.562C172.203 273.56 172.722 269.404 176.301 267.441C178.38 266.344 186.807 264.208 186.981 264.786C187.096 265.074 186.865 266.633 186.519 268.307ZM222.943 267.326C226.868 269.346 227.503 273.444 224.386 276.562C222.308 278.64 220.519 278.986 217.979 277.831C216.132 277.023 214.631 274.253 213.419 269.461C211.975 263.862 211.802 264.035 216.94 265.363C219.364 265.998 222.077 266.864 222.943 267.326Z" fill="#1E1D1D"/>
<path d="M95.9484 192.514C93.928 193.495 89.1946 195.4 85.3847 196.901C81.5171 198.344 77.8805 199.903 77.1878 200.364C74.9942 201.75 73.3779 205.329 73.3779 208.735C73.3779 215.027 76.726 217.971 86.9433 220.915C90.9263 222.069 92.8889 222.242 101.375 222.242C111.65 222.242 114.882 221.723 121.751 218.952C124.407 217.913 124.811 217.566 124.522 216.527C123.599 213.41 123.541 205.848 124.407 201.173C124.869 198.517 125.157 196.208 125.042 196.093C124.926 195.977 121.174 195.285 116.729 194.534C109.86 193.322 106.281 192.572 100.509 191.071C100.047 190.955 97.9687 191.59 95.9484 192.514Z" fill="#1E1D1D"/>
<path d="M295.042 192.052C292.675 192.629 287.133 193.784 282.746 194.534C278.359 195.285 274.665 195.977 274.549 196.093C274.434 196.208 274.723 198.517 275.184 201.173C276.05 205.848 275.993 214.623 275.127 216.931C274.838 217.566 275.588 218.086 278.128 219.067C285.633 221.896 287.999 222.242 298.217 222.242C306.702 222.242 308.665 222.069 312.59 220.915C322.981 217.913 326.213 215.027 326.213 208.735C326.213 202.5 324.424 200.826 312.936 196.381C309.3 194.938 304.797 193.091 302.95 192.283C301.103 191.475 299.544 190.782 299.487 190.84C299.429 190.84 297.408 191.417 295.042 192.052Z" fill="#1E1D1D"/>
<path d="M172.203 302.884C172.665 309.638 176.302 315.295 181.67 317.546C189.347 320.779 210.128 320.837 217.748 317.604C223.29 315.295 226.926 309.696 227.388 302.884L227.677 298.67L225.137 299.132C221.847 299.71 177.745 299.71 174.454 299.132L171.915 298.67L172.203 302.884Z" fill="#1E1D1D"/>
<defs>
<linearGradient id="paint0_linear_1532_6582" x1="200" y1="0" x2="200" y2="400" gradientUnits="userSpaceOnUse">
<stop stop-color="#CAF045"/>
<stop offset="1" stop-color="#A6BB5D"/>
</linearGradient>
</defs>
</svg>
