<svg width="18" height="20" viewBox="0 0 18 20" fill="none" xmlns="http://www.w3.org/2000/svg">
<path d="M8.77315 0L0.925926 4.58824L8.77315 9.2L16.6204 4.61176L15.0926 3.69412L8.77315 7.43529L4.16667 4.68235L10.4398 0.988235L8.77315 0Z" fill="#DB5050"/>
<path fill-rule="evenodd" clip-rule="evenodd" d="M7.91667 10.7529L0.0462963 6.11765L0 15.3647L1.64352 16.3529V12.7529L6.45833 15.5765V19.1765L7.91667 20V10.7529ZM1.66667 8.8L6.48148 11.6235V13.6941L1.66667 10.8471V8.8Z" fill="#DB5050"/>
<path fill-rule="evenodd" clip-rule="evenodd" d="M9.65278 10.7059L17.5 6.09412V11.7647L11.2037 15.4824L11.1806 19.1059L9.65278 19.9765V10.7059ZM11.2037 11.5294L11.1806 13.6235L15.8102 10.8941V8.8L11.2037 11.5294Z" fill="#DB5050"/>
</svg>
